<svg xmlns="http://www.w3.org/2000/svg" viewBox="0 0 100 100"><path d="M-64.64 -64.64L-85.36 -64.64M-100.00 -50.00L-85.36 -64.64M-100.00 -50.00L-114.64 -64.64M-135.36 -64.64L-114.64 -64.64M-135.36 -64.64L-135.36 -85.36M-150.00 -100.00L-135.36 -85.36M-150.00 -100.00L-135.36 -114.64M-135.36 -135.36L-135.36 -114.64M-135.36 -135.36L-114.64 -135.36M-100.00 -150.00L-114.64 -135.36M-100.00 -150.00L-85.36 -135.36M-64.64 -135.36L-85.36 -135.36M-64.64 -135.36L-64.64 -114.64M-50.00 -100.00L-64.64 -114.64M-50.00 -100.00L-64.64 -85.36M-64.64 -64.64L-64.64 -85.36M-64.64 35.36L-85.36 35.36M-100.00 50.00L-85.36 35.36M-100.00 50.00L-114.64 35.36M-135.36 35.36L-114.64 35.36M-135.36 35.36L-135.36 14.64M-150.00 0.00L-135.36 14.64M-150.00 0.00L-135.36 -14.64M-135.36 -35.36L-135.36 -14.64M-135.36 -35.36L-114.64 -35.36M-100.00 -50.00L-114.64 -35.36M-100.00 -50.00L-85.36 -35.36M-64.64 -35.36L-85.36 -35.36M-64.64 -35.36L-64.64 -14.64M-50.00 -0.00L-64.64 -14.64M-50.00 -0.00L-64.64 14.64M-64.64 35.36L-64.64 14.64M-64.64 135.36L-85.36 135.36M-100.00 150.00L-85.36 135.36M-100.00 150.00L-114.64 135.36M-135.36 135.36L-114.64 135.36M-135.36 135.36L-135.36 114.64M-150.00 100.00L-135.36 114.64M-150.00 100.00L-135.36 85.36M-135.36 64.64L-135.36 85.36M-135.36 64.64L-114.64 64.64M-100.00 50.00L-114.64 64.64M-100.00 50.00L-85.36 64.64M-64.64 64.64L-85.36 64.64M-64.64 64.64L-64.64 85.36M-50.00 100.00L-64.64 85.36M-50.00 100.00L-64.64 114.64M-64.64 135.36L-64.64 114.64M-64.64 235.36L-85.36 235.36M-100.00 250.00L-85.36 235.36M-100.00 250.00L-114.64 235.36M-135.36 235.36L-114.64 235.36M-135.36 235.36L-135.36 214.64M-150.00 200.00L-135.36 214.64M-150.00 200.00L-135.36 185.36M-135.36 164.64L-135.36 185.36M-135.36 164.64L-114.64 164.64M-100.00 150.00L-114.64 164.64M-100.00 150.00L-85.36 164.64M-64.64 164.64L-85.36 164.64M-64.64 164.64L-64.64 185.36M-50.00 200.00L-64.64 185.36M-50.00 200.00L-64.64 214.64M-64.64 235.36L-64.64 214.64M35.36 -64.64L14.64 -64.64M0.00 -50.00L14.64 -64.64M0.00 -50.00L-14.64 -64.64M-35.36 -64.64L-14.64 -64.64M-35.36 -64.64L-35.36 -85.36M-50.00 -100.00L-35.36 -85.36M-50.00 -100.00L-35.36 -114.64M-35.36 -135.36L-35.36 -114.64M-35.36 -135.36L-14.64 -135.36M-0.00 -150.00L-14.64 -135.36M-0.00 -150.00L14.64 -135.36M35.36 -135.36L14.64 -135.36M35.36 -135.36L35.36 -114.64M50.00 -100.00L35.36 -114.64M50.00 -100.00L35.36 -85.36M35.36 -64.64L35.36 -85.36M35.36 35.36L14.64 35.36M0.00 50.00L14.64 35.36M0.00 50.00L-14.64 35.36M-35.36 35.36L-14.64 35.36M-35.36 35.36L-35.36 14.64M-50.00 0.00L-35.36 14.64M-50.00 0.00L-35.36 -14.64M-35.36 -35.36L-35.36 -14.64M-35.36 -35.36L-14.64 -35.36M-0.00 -50.00L-14.64 -35.36M-0.00 -50.00L14.64 -35.36M35.36 -35.36L14.64 -35.36M35.36 -35.36L35.36 -14.64M50.00 -0.00L35.36 -14.64M50.00 -0.00L35.36 14.64M35.36 35.36L35.36 14.64M35.36 135.36L14.64 135.36M0.00 150.00L14.64 135.36M0.00 150.00L-14.64 135.36M-35.36 135.36L-14.64 135.36M-35.36 135.36L-35.36 114.64M-50.00 100.00L-35.36 114.64M-50.00 100.00L-35.36 85.36M-35.36 64.64L-35.36 85.36M-35.36 64.64L-14.64 64.64M-0.00 50.00L-14.64 64.64M-0.00 50.00L14.64 64.64M35.36 64.64L14.64 64.64M35.36 64.64L35.36 85.36M50.00 100.00L35.36 85.36M50.00 100.00L35.36 114.64M35.36 135.36L35.36 114.64M35.36 235.36L14.64 235.36M0.00 250.00L14.64 235.36M0.00 250.00L-14.64 235.36M-35.36 235.36L-14.64 235.36M-35.36 235.36L-35.36 214.64M-50.00 200.00L-35.36 214.64M-50.00 200.00L-35.36 185.36M-35.36 164.64L-35.36 185.36M-35.36 164.64L-14.64 164.64M-0.00 150.00L-14.64 164.64M-0.00 150.00L14.64 164.64M35.36 164.64L14.64 164.64M35.36 164.64L35.36 185.36M50.00 200.00L35.36 185.36M50.00 200.00L35.36 214.64M35.36 235.36L35.36 214.64M135.36 -64.64L114.64 -64.64M100.00 -50.00L114.64 -64.64M100.00 -50.00L85.36 -64.64M64.64 -64.64L85.36 -64.64M64.64 -64.64L64.64 -85.36M50.00 -100.00L64.64 -85.36M50.00 -100.00L64.64 -114.64M64.64 -135.36L64.64 -114.64M64.64 -135.36L85.36 -135.36M100.00 -150.00L85.36 -135.36M100.00 -150.00L114.64 -135.36M135.36 -135.36L114.64 -135.36M135.36 -135.36L135.36 -114.64M150.00 -100.00L135.36 -114.64M150.00 -100.00L135.36 -85.36M135.36 -64.64L135.36 -85.36M135.36 35.36L114.64 35.36M100.00 50.00L114.64 35.36M100.00 50.00L85.36 35.36M64.64 35.36L85.36 35.36M64.64 35.36L64.64 14.64M50.00 0.00L64.64 14.64M50.00 0.00L64.64 -14.64M64.64 -35.36L64.64 -14.64M64.64 -35.36L85.36 -35.36M100.00 -50.00L85.36 -35.36M100.00 -50.00L114.64 -35.36M135.36 -35.36L114.64 -35.36M135.36 -35.36L135.36 -14.64M150.00 -0.00L135.36 -14.64M150.00 -0.00L135.36 14.64M135.36 35.36L135.36 14.64M135.36 135.36L114.64 135.36M100.00 150.00L114.64 135.36M100.00 150.00L85.36 135.36M64.64 135.36L85.36 135.36M64.64 135.36L64.64 114.64M50.00 100.00L64.64 114.64M50.00 100.00L64.64 85.36M64.64 64.64L64.64 85.36M64.64 64.64L85.36 64.64M100.00 50.00L85.36 64.64M100.00 50.00L114.64 64.64M135.36 64.64L114.64 64.64M135.36 64.64L135.36 85.36M150.00 100.00L135.36 85.36M150.00 100.00L135.36 114.64M135.36 135.36L135.36 114.64M135.36 235.36L114.64 235.36M100.00 250.00L114.64 235.36M100.00 250.00L85.36 235.36M64.64 235.36L85.36 235.36M64.64 235.36L64.64 214.64M50.00 200.00L64.64 214.64M50.00 200.00L64.64 185.36M64.64 164.64L64.64 185.36M64.64 164.64L85.36 164.64M100.00 150.00L85.36 164.64M100.00 150.00L114.64 164.64M135.36 164.64L114.64 164.64M135.36 164.64L135.36 185.36M150.00 200.00L135.36 185.36M150.00 200.00L135.36 214.64M135.36 235.36L135.36 214.64M235.36 -64.64L214.64 -64.64M200.00 -50.00L214.64 -64.64M200.00 -50.00L185.36 -64.64M164.64 -64.64L185.36 -64.64M164.64 -64.64L164.64 -85.36M150.00 -100.00L164.64 -85.36M150.00 -100.00L164.64 -114.64M164.64 -135.36L164.64 -114.64M164.64 -135.36L185.36 -135.36M200.00 -150.00L185.36 -135.36M200.00 -150.00L214.64 -135.36M235.36 -135.36L214.64 -135.36M235.36 -135.36L235.36 -114.64M250.00 -100.00L235.36 -114.64M250.00 -100.00L235.36 -85.36M235.36 -64.64L235.36 -85.36M235.36 35.36L214.64 35.36M200.00 50.00L214.64 35.36M200.00 50.00L185.36 35.36M164.64 35.36L185.36 35.36M164.64 35.36L164.64 14.64M150.00 0.00L164.64 14.64M150.00 0.00L164.64 -14.64M164.64 -35.36L164.64 -14.64M164.64 -35.36L185.36 -35.36M200.00 -50.00L185.36 -35.36M200.00 -50.00L214.64 -35.36M235.36 -35.36L214.64 -35.36M235.36 -35.36L235.36 -14.64M250.00 -0.00L235.36 -14.64M250.00 -0.00L235.36 14.64M235.36 35.36L235.36 14.64M235.36 135.36L214.64 135.36M200.00 150.00L214.64 135.36M200.00 150.00L185.36 135.36M164.64 135.36L185.36 135.36M164.64 135.36L164.64 114.64M150.00 100.00L164.64 114.64M150.00 100.00L164.64 85.36M164.64 64.64L164.64 85.36M164.64 64.64L185.36 64.64M200.00 50.00L185.36 64.64M200.00 50.00L214.64 64.64M235.36 64.64L214.64 64.64M235.36 64.64L235.36 85.36M250.00 100.00L235.36 85.36M250.00 100.00L235.36 114.64M235.36 135.36L235.36 114.64M235.36 235.36L214.64 235.36M200.00 250.00L214.64 235.36M200.00 250.00L185.36 235.36M164.64 235.36L185.36 235.36M164.64 235.36L164.64 214.64M150.00 200.00L164.64 214.64M150.00 200.00L164.64 185.36M164.64 164.64L164.64 185.36M164.64 164.64L185.36 164.64M200.00 150.00L185.36 164.64M200.00 150.00L214.64 164.64M235.36 164.64L214.64 164.64M235.36 164.64L235.36 185.36M250.00 200.00L235.36 185.36M250.00 200.00L235.36 214.64M235.36 235.36L235.36 214.64" fill="none" stroke="#000" stroke-width="2.0" stroke-linecap="round"/></svg>